<svg width="100%" height="100%" viewBox="-8 -5 50 50" xmlns="http://www.w3.org/2000/svg"><path d="M24.528 7.9125C24.1467 8.22187 23.7874 8.3875 23.2655 8.39688C23.7249 7.94688 24.1405 7.43125 24.478 6.875C24.8155 6.31875 25.0717 5.71875 25.2624 5.09375C23.6436 6.32187 21.1561 6.64062 18.9186 7.55312C16.753 8.42812 14.8186 9.85312 14.5655 11.7312C14.3874 13.0781 15.0686 14.6531 16.0249 16.0063C16.1311 15.6469 16.303 15.2781 16.553 15.0125C17.0467 14.4906 17.853 14.3594 18.628 14.2344C19.7999 14.0469 20.8936 13.875 21.8561 13.3156C22.5342 12.9219 23.1436 12.3313 23.528 11.6281C23.7467 11.2344 23.8936 10.8031 23.9811 10.3656C23.7311 10.6 23.3405 10.7531 23.0155 10.6844C23.8186 9.9 24.3374 9.00625 24.528 7.9125Z" fill="#fff"/><path d="M16.0221 17.6094H8.7002V18.2969C8.7002 18.2969 12.1314 18.4781 12.6877 21.0938H16.0189H19.3502C19.9064 18.4781 23.3377 18.2969 23.3377 18.2969V17.6094H16.0221Z" fill="#fff"/><path d="M19.2221 21.6846C19.0033 21.6439 18.8002 21.7658 18.7627 21.9596L18.3689 24.4533C18.3658 24.4721 18.3627 24.4908 18.3627 24.5096H17.6346L17.9564 22.0721C17.9752 21.8752 17.8127 21.7033 17.5971 21.6814C17.3783 21.6596 17.1846 21.8033 17.1689 21.9971L17.0189 24.5064C17.0189 24.5096 17.0189 24.5096 17.0189 24.5127H16.3314L16.4221 22.0377C16.4221 21.8533 16.2627 21.7002 16.0658 21.6846C16.0533 21.6846 16.0408 21.6814 16.0252 21.6814C16.0127 21.6814 15.9971 21.6814 15.9846 21.6846C15.8377 21.6971 15.7127 21.7814 15.6596 21.9033C15.6377 21.9471 15.6283 21.9939 15.6283 22.0439L15.7189 24.5189H15.0314C15.0314 24.5158 15.0314 24.5158 15.0314 24.5127L14.8752 22.0002C14.8564 21.8033 14.6658 21.6627 14.4471 21.6846C14.2283 21.7064 14.0658 21.8814 14.0877 22.0752L14.4096 24.5127H13.6814C13.6783 24.4939 13.6752 24.4752 13.6752 24.4564L13.2814 21.9627C13.2439 21.7689 13.0377 21.6471 12.8221 21.6877C12.6033 21.7283 12.4627 21.9221 12.5002 22.1158L13.0564 24.5158H13.3846C13.4814 25.0502 13.5439 25.4252 13.5783 25.6283H14.1283C14.2314 26.6533 15.2189 36.1221 15.2189 36.1221C15.2189 36.1221 15.2846 36.9252 16.0221 36.9252C16.7564 36.9252 16.8252 36.1221 16.8252 36.1221C16.9908 34.7971 17.8064 26.5814 17.9158 25.6283H18.4689C18.5033 25.4252 18.5658 25.0502 18.6627 24.5158H18.9908L19.5471 22.1158C19.5814 21.9189 19.4377 21.7252 19.2221 21.6846Z" fill="#fff"/></svg>