<svg xmlns="http://www.w3.org/2000/svg" width="24" height="24" viewBox="0 0 24 24" fill="none"><path d="M14.4038 6.19512V5.33659H13.615V6.19512H14.4038ZM10.385 6.19512V5.33659H9.59624V6.19512H10.385ZM14.8169 3.81463C16.144 4.80325 16.8075 6.14309 16.8075 7.83415H7.19249C7.19249 7.13171 7.38028 6.39024 7.75587 5.60976C8.13146 4.82927 8.59468 4.23089 9.14554 3.81463L8.0939 2.72195C7.89358 2.51382 7.89358 2.3187 8.0939 2.13659C8.29421 1.95447 8.482 1.95447 8.65728 2.13659L9.85915 3.38537C10.5102 3.02114 11.2238 2.83902 12 2.83902C12.651 2.83902 13.3521 3.02114 14.1033 3.38537L15.3052 2.13659C15.5055 1.95447 15.6933 1.95447 15.8685 2.13659C16.0438 2.3187 16.0438 2.51382 15.8685 2.72195L14.8169 3.81463ZM17.9343 9.08293C18.1847 8.82276 18.4726 8.69268 18.7981 8.69268C19.1236 8.69268 19.3991 8.82276 19.6244 9.08293C19.8748 9.31707 20 9.60325 20 9.94146V15.7561C20 16.1203 19.8748 16.4195 19.6244 16.6537C19.3991 16.8878 19.1236 17.0049 18.7981 17.0049C18.4726 17.0049 18.1847 16.8878 17.9343 16.6537C17.7089 16.4195 17.5962 16.1203 17.5962 15.7561V9.94146C17.5962 9.60325 17.7089 9.31707 17.9343 9.08293ZM4.33803 9.08293C4.58842 8.82276 4.87637 8.69268 5.20188 8.69268C5.52739 8.69268 5.80282 8.82276 6.02817 9.08293C6.27856 9.31707 6.40376 9.60325 6.40376 9.94146V15.7561C6.40376 16.1203 6.27856 16.4195 6.02817 16.6537C5.80282 16.8878 5.52739 17.0049 5.20188 17.0049C4.87637 17.0049 4.58842 16.8878 4.33803 16.6537C4.11268 16.4195 4 16.1203 4 15.7561V9.94146C4 9.60325 4.11268 9.31707 4.33803 9.08293ZM7.19249 17.0049V8.69268H16.8075V17.0049C16.8075 17.239 16.7324 17.4341 16.5822 17.5902C16.4319 17.7463 16.2441 17.8244 16.0188 17.8244H15.1925V20.7512C15.1925 21.1154 15.0673 21.4146 14.8169 21.6488C14.5915 21.8829 14.3161 22 13.9906 22C13.6651 22 13.3772 21.8829 13.1268 21.6488C12.9014 21.4146 12.7887 21.1154 12.7887 20.7512V17.8244H11.2113V20.7512C11.2113 21.1154 11.0861 21.4146 10.8357 21.6488C10.6103 21.8829 10.3349 22 10.0094 22C9.68388 22 9.39593 21.8829 9.14554 21.6488C8.92019 21.4146 8.80751 21.1154 8.80751 20.7512V17.8244H7.98122C7.75587 17.8244 7.56808 17.7463 7.41784 17.5902C7.26761 17.4341 7.19249 17.239 7.19249 17.0049Z" fill="white"></path></svg>