<svg xmlns="http://www.w3.org/2000/svg" width="24" height="24" viewBox="0 0 24 24" fill="none"><path d="M16.6932 11.5088C16.7017 10.8955 16.8768 10.2942 17.2024 9.76079C17.528 9.22739 17.9934 8.77923 18.5554 8.45802C18.1984 7.98398 17.7275 7.59387 17.18 7.31867C16.6325 7.04346 16.0235 6.89075 15.4015 6.87265C14.0745 6.74314 12.788 7.61096 12.1118 7.61096C11.4226 7.61096 10.3814 6.88551 9.26033 6.90696C8.53516 6.92874 7.82843 7.12481 7.209 7.47607C6.58956 7.82733 6.07854 8.32179 5.72573 8.91127C4.19745 11.3715 5.33741 14.9873 6.80138 16.976C7.53384 17.9498 8.38987 19.0376 9.50997 18.999C10.6061 18.9567 11.0154 18.3491 12.3385 18.3491C13.6493 18.3491 14.0333 18.999 15.1762 18.9745C16.3523 18.9567 17.0934 17.9963 17.8001 17.0133C18.3264 16.3194 18.7313 15.5526 19 14.7411C18.3167 14.4724 17.7336 14.0226 17.3233 13.4478C16.9131 12.873 16.694 12.1986 16.6932 11.5088Z" fill="black"></path><path d="M14.5346 5.56475C15.1758 4.84895 15.4918 3.9289 15.4153 3C14.4355 3.09568 13.5305 3.53107 12.8806 4.21941C12.5628 4.55568 12.3194 4.94689 12.1643 5.37067C12.0093 5.79446 11.9455 6.24251 11.9768 6.6892C12.4668 6.6939 12.9516 6.59514 13.3947 6.40036C13.8377 6.20559 14.2275 5.91988 14.5346 5.56475Z" fill="black"></path></svg>