<svg xmlns="http://www.w3.org/2000/svg" width="24" height="24" viewBox="0 0 24 24" fill="none"><path d="M21.9844 17.0156V9.98438H18V17.0156H21.9844ZM23.0156 8.01562C23.2969 8.01562 23.5312 8.10938 23.7188 8.29688C23.9062 8.48438 24 8.71875 24 9V18.9844C24 19.2656 23.9062 19.5156 23.7188 19.7344C23.5312 19.9219 23.2969 20.0156 23.0156 20.0156H17.0156C16.7344 20.0156 16.4844 19.9219 16.2656 19.7344C16.0781 19.5156 15.9844 19.2656 15.9844 18.9844V9C15.9844 8.71875 16.0781 8.48438 16.2656 8.29688C16.4844 8.10938 16.7344 8.01562 17.0156 8.01562H23.0156ZM3.98438 6V17.0156H14.0156V20.0156H0V17.0156H2.01562V6C2.01562 5.46875 2.20312 5 2.57812 4.59375C2.98438 4.1875 3.45312 3.98438 3.98438 3.98438H21.9844V6H3.98438Z" fill="white"></path></svg>