<svg xmlns="http://www.w3.org/2000/svg" width="24" height="24" viewBox="0 0 24 24" fill="none"><path d="M20.077 9.34138C19.1331 5.69648 15.87 3 12.0004 3C8.13001 3 4.86689 5.69573 3.92297 9.34138C1.99488 11.036 0.626872 13.2762 0 15.7654C1.37379 15.2761 2.78503 14.8991 4.21982 14.6381C5.43354 17.8156 8.46745 20.0574 12.0004 20.0574C15.5461 20.0574 18.5665 17.8156 19.7802 14.6374C21.3306 14.9403 22.7465 15.3115 24 15.7654C23.3731 13.2762 22.0051 11.036 20.077 9.34138ZM9.42489 9.18957C9.0604 10.386 7.96844 11.1015 6.99746 10.7851C6.01296 10.4687 5.52823 9.25796 5.87844 8.06153C6.2294 6.86435 7.3349 6.1489 8.30587 6.46529C9.29037 6.76815 9.78863 7.99239 9.42489 9.18957ZM16.9755 10.7851C15.991 11.1007 14.9125 10.3868 14.5481 9.18957C14.1843 7.99239 14.6833 6.78168 15.6678 6.46529C16.6523 6.14965 17.7308 6.86435 18.0953 8.06153C18.4582 9.25796 17.96 10.4687 16.9755 10.7851Z" fill="white"></path></svg>