<svg xmlns="http://www.w3.org/2000/svg" width="24" height="24" viewBox="0 0 24 24" fill="none"><path d="M21.3078 6.64187C20.4628 5.96576 19.497 5.49492 18.4467 5.2414C17.8431 5.09658 17.2395 5.03621 16.6237 5.01204C16.1649 5 15.7062 5 15.2475 5C13.0865 5 10.9135 5 8.75251 5C8.2938 5 7.835 5 7.37629 5.01204C6.76062 5.03621 6.15701 5.09658 5.55331 5.2414C4.50302 5.49492 3.53718 5.96576 2.69216 6.64187C0.989922 8.00605 0 10.0704 0 12.2434C0 14.4285 0.989922 16.4809 2.69216 17.8451C3.53718 18.5211 4.50302 18.9919 5.55331 19.2454C6.15693 19.3903 6.76062 19.4506 7.37629 19.4748C7.83508 19.4868 8.29387 19.4868 8.75251 19.4868C10.9135 19.4868 13.0865 19.4868 15.2475 19.4868C15.7063 19.4868 16.165 19.4868 16.6237 19.4748C17.2395 19.4506 17.8431 19.3903 18.4467 19.2454C19.497 18.9919 20.4628 18.5211 21.3078 17.8451C23.0101 16.4809 24 14.4165 24 12.2434C24.0001 10.0583 23.0101 8.00605 21.3078 6.64187ZM18.1448 14.1871C17.8189 14.4045 17.4688 14.5372 17.0825 14.5976C16.6962 14.658 16.3219 14.6459 15.9356 14.6459C13.3159 14.6459 10.6841 14.6459 8.06436 14.6459C7.67806 14.6459 7.30387 14.6579 6.91749 14.5976C6.53119 14.5372 6.18109 14.4045 5.85516 14.1871C5.21525 13.7405 4.82903 13.0161 4.82903 12.2434C4.82903 11.4588 5.21533 10.7343 5.85516 10.2997C6.18109 10.0825 6.53119 9.94961 6.91749 9.88932C7.3038 9.82887 7.67806 9.84099 8.06436 9.84099C10.6841 9.84099 13.3159 9.84099 15.9356 9.84099C16.3219 9.84099 16.6962 9.82887 17.0825 9.88932C17.4688 9.94961 17.8189 10.0825 18.1448 10.2997C18.7847 10.7464 19.1711 11.4708 19.1711 12.2434C19.1711 13.0282 18.7847 13.7525 18.1448 14.1871Z" fill="white"></path></svg>